<?xml version="1.0" encoding="UTF-8" standalone="no"?>
<!DOCTYPE svg PUBLIC "-//W3C//DTD SVG 1.1//EN" "http://www.w3.org/Graphics/SVG/1.1/DTD/svg11.dtd">
<svg width="100%" height="100%" viewBox="0 0 1024 768" version="1.1" xmlns="http://www.w3.org/2000/svg" xmlns:xlink="http://www.w3.org/1999/xlink" xml:space="preserve" xmlns:serif="http://www.serif.com/" style="fill-rule:evenodd;clip-rule:evenodd;stroke-linecap:round;stroke-linejoin:round;stroke-miterlimit:1.5;">
    <g transform="matrix(0.522932,0,0,0.522932,22.7502,17.0776)">
        <text x="9.384px" y="142.405px" style="font-family:'FuturaPT-Light', 'Futura PT', sans-serif;font-weight:300;font-size:167.777px;">W<tspan x="166.088px 236.722px " y="142.405px 142.405px ">ha</tspan>t is</text>
        <text x="520.936px" y="142.405px" style="font-family:'FuturaPT-Heavy', 'Futura PT', sans-serif;font-weight:600;font-size:167.777px;">3-2-1</text>
        <text x="981.483px" y="142.405px" style="font-family:'FuturaPT-Light', 'Futura PT', sans-serif;font-weight:300;font-size:167.777px;">Back<tspan x="1294.72px " y="142.405px ">u</tspan>p?</text>
    </g>
    <g transform="matrix(0.801914,0,0,0.801914,25.5502,113.747)">
        <text x="9.384px" y="142.405px" style="font-family:'FuturaPT-Heavy', 'Futura PT', sans-serif;font-weight:600;font-size:109.363px;">3</text>
        <text x="86.624px" y="142.405px" style="font-family:'FuturaPT-Medium', 'Futura PT', sans-serif;font-weight:450;font-size:49.881px;">total copies of y<tspan x="399.376px " y="142.405px ">o</tspan>ur data</text>
    </g>
    <g transform="matrix(0.801914,0,0,0.801914,305.741,245.646)">
        <text x="9.384px" y="142.405px" style="font-family:'FuturaPT-Heavy', 'Futura PT', sans-serif;font-weight:600;font-size:109.363px;">2</text>
        <text x="86.624px" y="142.405px" style="font-family:'FuturaPT-Medium', 'Futura PT', sans-serif;font-weight:450;font-size:49.881px;">local copies on dif<tspan x="447.51px " y="142.405px ">f</tspan>er<tspan x="500.035px " y="142.405px ">e</tspan>nt media</text>
    </g>
    <g transform="matrix(0.801914,0,0,0.801914,686.96,376.01)">
        <text x="9.384px" y="142.405px" style="font-family:'FuturaPT-Heavy', 'Futura PT', sans-serif;font-weight:600;font-size:109.363px;">1</text>
        <text x="86.624px" y="142.405px" style="font-family:'FuturaPT-Medium', 'Futura PT', sans-serif;font-weight:450;font-size:49.881px;">r<tspan x="101.638px " y="142.405px ">e</tspan>mote copy</text>
    </g>
    <g id="description-24px.svg" transform="matrix(3.47092,0,0,3.47092,371.576,642.286)">
        <g transform="matrix(1,0,0,1,-12,-12)">
            <path d="M5.312,20.867L18.482,20.867L18.482,8.54L14.223,8.54L14.223,3.19L5.312,3.19L5.312,20.867Z" style="fill:white;"/>
            <rect x="0" y="0" width="24" height="24" style="fill:none;fill-rule:nonzero;"/>
            <path d="M8,16L16,16L16,18L8,18L8,16ZM8,12L16,12L16,14L8,14L8,12ZM14,2L6,2C4.9,2 4,2.9 4,4L4,20C4,21.1 4.89,22 5.99,22L18,22C19.1,22 20,21.1 20,20L20,8L14,2ZM18,20L6,20L6,4L13,4L13,9L18,9L18,20Z" style="fill-rule:nonzero;"/>
        </g>
    </g>
    <g id="description-24px.svg1" serif:id="description-24px.svg" transform="matrix(3.47092,0,0,3.47092,587.97,642.286)">
        <g transform="matrix(1,0,0,1,-12,-12)">
            <path d="M5.312,20.867L18.482,20.867L18.482,8.54L14.223,8.54L14.223,3.19L5.312,3.19L5.312,20.867Z" style="fill:white;"/>
            <rect x="0" y="0" width="24" height="24" style="fill:none;fill-rule:nonzero;"/>
            <path d="M8,16L16,16L16,18L8,18L8,16ZM8,12L16,12L16,14L8,14L8,12ZM14,2L6,2C4.9,2 4,2.9 4,4L4,20C4,21.1 4.89,22 5.99,22L18,22C19.1,22 20,21.1 20,20L20,8L14,2ZM18,20L6,20L6,4L13,4L13,9L18,9L18,20Z" style="fill-rule:nonzero;"/>
        </g>
    </g>
    <g id="description-24px.svg2" serif:id="description-24px.svg" transform="matrix(3.47092,0,0,3.47092,829.98,642.286)">
        <g transform="matrix(1,0,0,1,-12,-12)">
            <path d="M5.312,20.867L18.482,20.867L18.482,8.54L14.223,8.54L14.223,3.19L5.312,3.19L5.312,20.867Z" style="fill:white;"/>
            <rect x="0" y="0" width="24" height="24" style="fill:none;fill-rule:nonzero;"/>
            <path d="M8,16L16,16L16,18L8,18L8,16ZM8,12L16,12L16,14L8,14L8,12ZM14,2L6,2C4.9,2 4,2.9 4,4L4,20C4,21.1 4.89,22 5.99,22L18,22C19.1,22 20,21.1 20,20L20,8L14,2ZM18,20L6,20L6,4L13,4L13,9L18,9L18,20Z" style="fill-rule:nonzero;"/>
        </g>
    </g>
    <g transform="matrix(1,0,0,1,739.784,18.0361)">
        <text x="76.064px" y="613.361px" style="font-family:'FuturaPT-Medium', 'Futura PT', sans-serif;font-weight:450;font-size:22.144px;">3</text>
    </g>
    <g id="description-24px.svg3" serif:id="description-24px.svg" transform="matrix(3.47092,0,0,3.47092,97.3316,625.013)">
        <g transform="matrix(1,0,0,1,-12,-12)">
            <path d="M5.312,20.867L18.482,20.867L18.482,8.54L14.223,8.54L14.223,3.19L5.312,3.19L5.312,20.867Z" style="fill:white;"/>
            <rect x="0" y="0" width="24" height="24" style="fill:none;fill-rule:nonzero;"/>
            <path d="M8,16L16,16L16,18L8,18L8,16ZM8,12L16,12L16,14L8,14L8,12ZM14,2L6,2C4.9,2 4,2.9 4,4L4,20C4,21.1 4.89,22 5.99,22L18,22C19.1,22 20,21.1 20,20L20,8L14,2ZM18,20L6,20L6,4L13,4L13,9L18,9L18,20Z" style="fill-rule:nonzero;"/>
        </g>
    </g>
    <g id="description-24px.svg4" serif:id="description-24px.svg" transform="matrix(3.47092,0,0,3.47092,127.332,655.013)">
        <g transform="matrix(1,0,0,1,-12,-12)">
            <path d="M5.312,20.867L18.482,20.867L18.482,8.54L14.223,8.54L14.223,3.19L5.312,3.19L5.312,20.867Z" style="fill:white;"/>
            <rect x="0" y="0" width="24" height="24" style="fill:none;fill-rule:nonzero;"/>
            <path d="M8,16L16,16L16,18L8,18L8,16ZM8,12L16,12L16,14L8,14L8,12ZM14,2L6,2C4.9,2 4,2.9 4,4L4,20C4,21.1 4.89,22 5.99,22L18,22C19.1,22 20,21.1 20,20L20,8L14,2ZM18,20L6,20L6,4L13,4L13,9L18,9L18,20Z" style="fill-rule:nonzero;"/>
        </g>
    </g>
    <g id="description-24px.svg5" serif:id="description-24px.svg" transform="matrix(3.47092,0,0,3.47092,157.332,685.013)">
        <g transform="matrix(1,0,0,1,-12,-12)">
            <path d="M5.312,20.867L18.482,20.867L18.482,8.54L14.223,8.54L14.223,3.19L5.312,3.19L5.312,20.867Z" style="fill:white;"/>
            <rect x="0" y="0" width="24" height="24" style="fill:none;fill-rule:nonzero;"/>
            <path d="M8,16L16,16L16,18L8,18L8,16ZM8,12L16,12L16,14L8,14L8,12ZM14,2L6,2C4.9,2 4,2.9 4,4L4,20C4,21.1 4.89,22 5.99,22L18,22C19.1,22 20,21.1 20,20L20,8L14,2ZM18,20L6,20L6,4L13,4L13,9L18,9L18,20Z" style="fill-rule:nonzero;"/>
        </g>
    </g>
    <g transform="matrix(-0.572846,7.01534e-17,-7.38364e-17,-0.60292,604.52,823.714)">
        <g transform="matrix(-1.74567,-2.03119e-16,2.13783e-16,-1.65859,1055.29,1366.21)">
            <path d="M578.97,562.044L587.97,580.044L596.97,562.044L578.97,562.044Z"/>
            <path d="M380.576,562.044L371.576,580.044L362.576,562.044L380.576,562.044Z"/>
            <path d="M587.97,565.644L587.97,553.031L371.576,553.031L371.576,565.644" style="fill:none;stroke:black;stroke-width:6px;"/>
        </g>
    </g>
    <g id="computer-24px.svg" transform="matrix(2.75834,0,0,2.75834,371.576,726.664)">
        <g transform="matrix(1,0,0,1,-12,-12)">
            <g>
                <rect x="0" y="0" width="24" height="24" style="fill:none;"/>
            </g>
            <g>
                <g>
                    <path d="M4,18L20,18C21.1,18 21.99,17.1 21.99,16L22,5C22,3.9 21.1,3 20,3L4,3C2.9,3 2,3.9 2,5L2,16C2,17.1 2.9,18 4,18ZM4,5L20,5L20,16L4,16L4,5Z" style="fill-rule:nonzero;"/>
                    <path d="M1,20C1,20.55 1.45,21 2,21L22,21C22.55,21 23,20.55 23,20C23,19.45 22.55,19 22,19L2,19C1.45,19 1,19.45 1,20Z" style="fill-rule:nonzero;"/>
                </g>
            </g>
        </g>
    </g>
    <path d="M371.576,683.937L371.576,693.563" style="fill:none;stroke:black;stroke-width:6px;"/>
    <g transform="matrix(1,0,0,1,216.394,0)">
        <path d="M371.576,683.937L371.576,693.563" style="fill:none;stroke:black;stroke-width:6px;"/>
    </g>
    <g transform="matrix(1,0,0,1,458.405,0)">
        <path d="M371.576,683.937L371.576,693.563" style="fill:none;stroke:black;stroke-width:6px;"/>
    </g>
    <g id="storage-24px.svg" transform="matrix(2.68575,0,0,2.68575,587.97,725.792)">
        <g transform="matrix(1,0,0,1,-12,-12)">
            <rect x="0" y="0" width="24" height="24" style="fill:none;fill-rule:nonzero;"/>
            <path d="M2,20L22,20L22,16L2,16L2,20ZM4,17L6,17L6,19L4,19L4,17ZM2,4L2,8L22,8L22,4L2,4ZM6,7L4,7L4,5L6,5L6,7ZM2,14L22,14L22,10L2,10L2,14ZM4,11L6,11L6,13L4,13L4,11Z" style="fill-rule:nonzero;"/>
        </g>
    </g>
    <g id="backup-24px.svg" transform="matrix(2.68575,0,0,2.68575,829.98,725.792)">
        <g transform="matrix(1,0,0,1,-12,-12)">
            <rect x="0" y="0" width="24" height="24" style="fill:none;fill-rule:nonzero;"/>
            <path d="M19.35,10.04C18.67,6.59 15.64,4 12,4C9.11,4 6.6,5.64 5.35,8.04C2.34,8.36 0,10.91 0,14C0,17.31 2.69,20 6,20L19,20C21.76,20 24,17.76 24,15C24,12.36 21.95,10.22 19.35,10.04ZM19,18L6,18C3.79,18 2,16.21 2,14C2,11.95 3.53,10.24 5.56,10.03L6.63,9.92L7.13,8.97C8.08,7.14 9.94,6 12,6C14.62,6 16.88,7.86 17.39,10.43L17.69,11.93L19.22,12.04C20.78,12.14 22,13.45 22,15C22,16.65 20.65,18 19,18ZM8,13L10.55,13L10.55,16L13.45,16L13.45,13L16,13L12,9L8,13Z" style="fill-rule:nonzero;"/>
        </g>
    </g>
    <path d="M838.98,562.044L829.98,580.044L820.98,562.044L838.98,562.044Z"/>
    <path d="M127.332,580.044L127.332,526.252L829.98,526.252L829.98,565.644" style="fill:none;stroke:black;stroke-width:6px;"/>
    <path d="M478.656,553.148L478.656,526.252" style="fill:none;stroke:black;stroke-width:6px;"/>
    <g transform="matrix(1,0,0,1,7.3978,0.757799)">
        <text x="76.064px" y="613.361px" style="font-family:'FuturaPT-Medium', 'Futura PT', sans-serif;font-weight:450;font-size:22.144px;">1</text>
    </g>
    <g transform="matrix(1,0,0,1,36.4891,30.6595)">
        <text x="76.064px" y="613.361px" style="font-family:'FuturaPT-Medium', 'Futura PT', sans-serif;font-weight:450;font-size:22.144px;">2</text>
    </g>
    <g transform="matrix(1,0,0,1,66.5008,60.6871)">
        <text x="76.064px" y="613.361px" style="font-family:'FuturaPT-Medium', 'Futura PT', sans-serif;font-weight:450;font-size:22.144px;">3</text>
    </g>
    <g transform="matrix(1,0,0,1,282.397,18.0361)">
        <text x="76.064px" y="613.361px" style="font-family:'FuturaPT-Medium', 'Futura PT', sans-serif;font-weight:450;font-size:22.144px;">1</text>
    </g>
    <g transform="matrix(1,0,0,1,497.135,18.0361)">
        <text x="76.064px" y="613.361px" style="font-family:'FuturaPT-Medium', 'Futura PT', sans-serif;font-weight:450;font-size:22.144px;">2</text>
    </g>
</svg>
